<svg xmlns="http://www.w3.org/2000/svg"><style>:root svg:not(:target){display:none}</style><svg fill="none" id="arrow-down" viewBox="0 0 10 8"><path d="M4.777 8 .252.5h9.05L4.777 8Z" fill="#BABABA"></path></svg><svg fill="none" id="arrow-slider" viewBox="0 0 7 12"><path d="m6.711 6.545-5.148 5.182a.896.896 0 0 1-1.287 0 .872.872 0 0 1 0-1.273L4.78 6 .276 1.545C.092 1.364 0 1.182 0 .91 0 .364.368 0 .92 0c.275 0 .46.09.643.273l5.24 5.182c.276.181.276.727-.092 1.09Z" fill="#2B2B2B"></path></svg><svg fill="none" id="compare" viewBox="0 0 19 20"><path fill-rule="evenodd" clip-rule="evenodd" d="M2.938 1.122C3.592.977 4.367.93 5.254.93h7.88c.887 0 1.661.047 2.316.192.664.148 1.259.41 1.727.88.469.47.73 1.065.878 1.73.146.656.192 1.432.192 2.32v4.267c0 .889-.046 1.665-.192 2.32-.147.666-.409 1.262-.878 1.731-.468.47-1.063.732-1.727.88-.655.145-1.43.192-2.316.192h-2.13l1.63 2.177a.904.904 0 1 1-1.448 1.088l-1.992-2.66-1.992 2.66c-.3.4-.867.482-1.267.181a.908.908 0 0 1-.181-1.27l1.63-2.176h-2.13c-.887 0-1.662-.047-2.316-.192-.664-.148-1.26-.41-1.728-.88-.468-.47-.73-1.065-.878-1.73-.145-.656-.191-1.432-.191-2.32V6.052c0-.889.046-1.665.191-2.32.148-.666.41-1.262.878-1.731.469-.47 1.064-.732 1.728-.88ZM10.1 5.465a.906.906 0 1 0-1.81 0v5.442a.906.906 0 1 0 1.81 0V5.465Zm2.716 0c.5 0 .905.406.905.907v4.535a.906.906 0 1 1-1.81 0V6.372c0-.5.405-.907.905-.907ZM6.478 7.28a.906.906 0 1 0-1.81 0v3.628a.906.906 0 1 0 1.81 0V7.279Z" fill="#FAFAFA"></path></svg><svg fill="none" id="courses" viewBox="0 0 21 21"><path fill-rule="evenodd" clip-rule="evenodd" d="M3.792.77C4.523.606 5.388.554 6.38.554h8.8c.991 0 1.856.052 2.587.214.742.165 1.406.458 1.93.98.523.524.815 1.188.98 1.93.162.731.214 1.596.214 2.587v4.756c0 .99-.052 1.856-.214 2.587-.165.742-.457 1.406-.98 1.93-.524.523-1.188.815-1.93.98-.73.162-1.596.214-2.587.214h-2.378l1.82 2.427a1.011 1.011 0 0 1-1.617 1.213l-2.225-2.966-2.224 2.966a1.011 1.011 0 0 1-1.618-1.213l1.82-2.427H6.379c-.99 0-1.856-.052-2.587-.214-.742-.165-1.406-.457-1.93-.98-.523-.524-.815-1.188-.98-1.93-.162-.731-.214-1.596-.214-2.587V6.266c0-.99.052-1.856.214-2.586.165-.743.457-1.407.98-1.93.524-.523 1.188-.816 1.93-.98Zm7.998 4.84a1.011 1.011 0 0 0-2.022 0v6.067a1.011 1.011 0 0 0 2.022 0V5.611Zm3.034 0c.558 0 1.01.453 1.01 1.012v5.055a1.011 1.011 0 0 1-2.022 0V6.622c0-.559.453-1.011 1.011-1.011ZM7.745 7.634a1.011 1.011 0 0 0-2.022 0v4.044a1.011 1.011 0 0 0 2.022 0V7.633Z" fill="#655BD5"></path></svg><svg fill="none" id="mentors" viewBox="0 0 15 21"><path fill-rule="evenodd" clip-rule="evenodd" d="M.78 7.3a6.745 6.745 0 1 1 13.49 0 6.745 6.745 0 0 1-13.49 0Z" fill="#655BD5"></path><path d="M2.65 13.474c-.344-.273-.884-.123-.99.303l-.7 2.8c-.718 2.87 2.346 5.208 4.925 3.757l1.093-.615c.342-.192.76-.192 1.103 0l1.093.615c2.579 1.451 5.643-.886 4.925-3.757l-.7-2.8c-.106-.426-.646-.576-.99-.303a7.836 7.836 0 0 1-4.88 1.695 7.836 7.836 0 0 1-4.879-1.695Z" fill="#655BD5"></path></svg><svg viewBox="0 0 16 16" fill="none" id="star-dot"><path d="M7.77778 0.222168L9.87848 5.89924L15.5556 7.99995L9.87848 10.1007L7.77778 15.7777L5.67707 10.1007L0 7.99995L5.67707 5.89924L7.77778 0.222168Z" fill="#6B6B6B"></path></svg><svg fill="none" id="stars" viewBox="0 0 79 14"><path d="m6.81 0 1.53 4.706h4.948L9.284 7.614l1.53 4.706L6.81 9.412 2.807 12.32l1.53-4.706L.332 4.706h4.948L6.811 0ZM23.155 0l1.53 4.706h4.947L25.63 7.614l1.53 4.706-4.004-2.908-4.003 2.908 1.53-4.706-4.004-2.908h4.948L23.156 0ZM39.5 0l1.529 4.706h4.948l-4.003 2.908 1.529 4.706L39.5 9.412l-4.003 2.908 1.529-4.706-4.003-2.908h4.948L39.5 0ZM55.846 0l1.529 4.706h4.948L58.32 7.614l1.529 4.706-4.003-2.908-4.003 2.908 1.529-4.706-4.004-2.908h4.949L55.846 0ZM72.19 0l1.53 4.706h4.948l-4.004 2.908 1.53 4.706-4.004-2.908-4.003 2.908 1.53-4.706-4.004-2.908h4.948L72.191 0Z" fill="#FECD1E"></path></svg><svg viewBox="0 0 27 27" fill="none" id="users"><path fill-rule="evenodd" clip-rule="evenodd" d="M4.71094 11.6214C4.71094 8.27083 7.42708 5.55469 10.7776 5.55469C14.1281 5.55469 16.8443 8.27083 16.8443 11.6214C16.8443 14.9719 14.1281 17.688 10.7776 17.688C7.42708 17.688 4.71094 14.9719 4.71094 11.6214Z" fill="white"></path><path fill-rule="evenodd" clip-rule="evenodd" d="M4.07724 20.3307C5.72786 19.5429 7.93891 19.2886 10.7791 19.2886C13.6193 19.2886 15.8303 19.5429 17.4809 20.3307C19.2231 21.1622 20.2801 22.5566 20.8445 24.572C20.94 24.9131 20.8839 25.2842 20.6934 25.5719C20.5028 25.8595 20.2005 26.0293 19.8791 26.0293H1.67909C1.35765 26.0293 1.05536 25.8595 0.864804 25.5719C0.674249 25.2842 0.618132 24.9131 0.713641 24.572C1.27811 22.5566 2.33501 21.1622 4.07724 20.3307Z" fill="white"></path><path d="M17.7773 4.2859L20.3972 6.90578L25.637 1.66602" stroke="white" stroke-width="1.55556" stroke-linecap="round" stroke-linejoin="round"></path></svg></svg>